# xmcd
#
# Track frame offsets: 
#        150
#        15262
#        35292
#        46732
#        63752
#        80962
#        104147
#        124310
#        146450
#        169897
#        182102
#        206955
#        226210
#        250537
#
# Disc length: 3709 seconds
#
# Revision: 1
# Processed by: cddbd v1.5.2PL0 Copyright (c) Steve Scherf et al.
# Submitted via: ExactAudioCopy v0.99pb4
#
DISCID=bd0e7b0e
DTITLE=Dave Brubeck - Private Brubeck Remembers
DYEAR=2004
DGENRE=Jazz
TTITLE0=For All We Know
TTITLE1=Something to Remember You By
TTITLE2=Don't Sit Under the Apple Tree (with Anyone Else But Me)
TTITLE3=Don't Worry 'bout Me
TTITLE4=For You
TTITLE5=Where or When
TTITLE6=Lili Marlene
TTITLE7=It's a Sin to Tell a Lie
TTITLE8=When I Grow Too Old to Dream
TTITLE9=We Crossed the Rhine
TTITLE10=Please Be Kind
TTITLE11=Weep No More
TTITLE12=The Last Time I Saw Paris
TTITLE13=You'd Be So Nice to Come Home to
EXTD=YEAR: 2004
EXTT0=
EXTT1=
EXTT2=
EXTT3=
EXTT4=
EXTT5=
EXTT6=
EXTT7=
EXTT8=
EXTT9=
EXTT10=
EXTT11=
EXTT12=
EXTT13=
PLAYORDER=
